<?xml version="1.0" encoding="utf-8"?>
<!-- Generator: Adobe Illustrator 14.0.0, SVG Export Plug-In . SVG Version: 6.00 Build 43363)  -->
<!DOCTYPE svg PUBLIC "-//W3C//DTD SVG 1.1//EN" "http://www.w3.org/Graphics/SVG/1.1/DTD/svg11.dtd">
<svg version="1.1" id="Layer_1" xmlns="http://www.w3.org/2000/svg" xmlns:xlink="http://www.w3.org/1999/xlink" x="0px" y="0px"
	 width="200px" height="180px" viewBox="0 0 200 180" enable-background="new 0 0 200 180" xml:space="preserve">
<g>
	<polyline fill-rule="evenodd" clip-rule="evenodd" fill="#BE2026" points="130.494,121.87 130.494,152.088 131.045,153.46 
		131.869,154.285 132.967,155.11 134.067,155.658 135.165,155.933 136.54,155.933 137.362,156.208 160.439,156.208 162.087,155.933 
		163.462,155.658 164.56,154.835 165.385,154.011 165.935,152.912 166.21,151.538 165.935,150.165 165.385,148.79 155.494,131.483 
		154.396,130.11 153.297,128.461 151.648,125.715 150.001,123.516 149.176,122.692 148.352,121.593 147.253,121.047 146.429,120.22 
		145.331,119.67 144.23,119.397 142.858,118.847 141.483,118.574 100.274,118.574 97.528,118.847 95.331,119.12 93.406,119.67 
		92.309,120.497 91.208,121.593 90.66,122.692 90.66,125.715 90.936,127.365 92.583,131.208 94.781,136.153 96.153,138.901 
		97.804,141.649 98.901,144.119 99.727,146.867 100.274,149.89 100.549,152.912 100.549,155.933 100.274,158.956 99.451,162.253 
		98.076,165.273 96.429,168.021 94.231,170.77 91.483,172.967 88.188,175.165 84.34,176.813 79.67,178.188 74.451,179.01 
		68.682,179.285 19.507,179.285 16.484,179.01 13.736,178.735 11.266,178.188 8.793,177.087 6.868,175.989 3.573,173.242 
		2.2,171.319 0.55,167.472 0.275,165.273 0,163.352 0.275,160.879 0.55,158.681 2.2,154.285 84.615,13.079 86.538,10.056 
		88.463,7.583 90.386,5.386 92.583,3.738 94.506,2.363 96.704,1.54 98.626,0.99 100.824,0.715 102.747,0.99 104.944,1.54 
		106.87,2.363 109.067,3.738 110.99,5.386 112.913,7.583 114.836,10.056 116.483,12.804 153.021,76.265 154.121,79.012 
		154.946,81.484 155.219,83.957 154.672,86.43 153.297,88.353 151.374,89.726 148.901,90.824 145.331,91.102 71.154,91.102 
		84.34,68.299 113.738,68.299 115.11,68.023 116.208,67.474 117.033,66.648 117.309,65.826 117.309,64.451 117.033,63.078 
		116.208,61.431 103.847,40.826 102.199,38.628 101.649,38.078 100.001,38.078 99.177,38.628 97.528,40.826 35.716,147.143 
		35.166,148.79 34.891,150.439 35.166,152.088 35.716,153.186 36.541,154.285 37.639,155.11 39.011,155.658 40.661,155.658 
		56.595,155.933 59.343,155.933 61.813,155.658 64.011,155.11 65.934,154.285 67.309,153.46 68.682,152.362 69.781,150.987 
		70.604,149.615 71.154,147.967 71.429,146.317 71.429,144.67 71.154,142.747 70.604,140.824 69.781,138.901 68.682,136.704 
		67.309,134.781 64.836,130.658 62.638,126.538 61.264,122.692 60.44,119.12 60.165,115.274 60.165,111.979 60.99,108.684 
		62.088,105.934 63.736,103.188 65.661,100.716 68.131,98.793 70.879,96.87 73.901,95.497 77.472,94.397 81.045,93.848 
		85.165,93.574 152.474,93.574 153.571,93.848 154.946,94.12 156.319,94.67 157.691,94.947 160.439,96.043 161.814,96.87 
		162.912,97.692 164.285,98.793 165.385,99.615 166.485,100.716 167.583,102.088 168.407,103.461 169.506,104.838 196.978,152.088 
		198.353,154.835 199.176,157.583 199.726,160.054 200,162.253 200,164.724 199.726,166.922 198.9,169.121 198.078,171.044 
		195.33,174.34 193.683,175.715 191.758,177.087 189.835,177.912 187.637,178.735 182.691,179.285 127.474,179.285 125.001,179.01 
		122.254,178.735 120.056,178.188 117.583,177.087 115.66,176.263 111.813,173.517 110.165,172.142 108.518,170.494 
		107.417,168.847 106.319,166.922 105.22,165.273 104.397,163.352 103.847,161.429 103.572,159.78 103.572,121.87 130.494,121.87 	
		"/>
</g>
</svg>
