<svg id="Group_180" data-name="Group 180" xmlns="http://www.w3.org/2000/svg" xmlns:xlink="http://www.w3.org/1999/xlink" width="646.309" height="218.171" viewBox="0 0 646.309 218.171">
  <defs>
    <clipPath id="clip-path">
      <rect id="Rectangle_76" data-name="Rectangle 76" width="646.309" height="218.171" fill="none"/>
    </clipPath>
  </defs>
  <g id="Group_179" data-name="Group 179" clip-path="url(#clip-path)">
    <path id="Path_203" data-name="Path 203" d="M546.67,102.554c-32.78,29.04-78.077,45.614-125.146,45.614H17.67v4.911H421.524c46.665,0,91.66-15.913,125.146-44.059Z" fill="#93121b"/>
    <path id="Path_204" data-name="Path 204" d="M17.67,154.37V159H421.524c46.681,0,91.689-14.7,125.146-40.7v-5.849c-32.809,26.691-78.091,41.924-125.146,41.924Z" fill="#93121b"/>
    <path id="Path_205" data-name="Path 205" d="M17.67,160.569v4.344H421.523c46.7,0,91.725-13.483,125.147-37.322v-5.276c-32.833,24.356-78.106,38.254-125.147,38.254Z" fill="#93121b"/>
    <path id="Path_206" data-name="Path 206" d="M546.67,132.213c-32.84,21.93-77.992,34.434-124.9,34.434H17.67v4.065H421.778c46.6,0,91.526-12.2,124.892-33.762Z" fill="#93121b"/>
    <path id="Path_207" data-name="Path 207" d="M546.67,142.036c-32.857,19.6-77.963,30.771-124.814,30.771H17.67v3.783H421.856c46.579,0,91.49-10.955,124.814-30.317Z" fill="#93121b"/>
    <path id="Path_208" data-name="Path 208" d="M546.67,155.609v-3.778C513.8,169.117,468.74,178.97,421.942,178.97H17.67v3.5H421.942c46.556,0,91.445-9.707,124.728-26.862" fill="#93121b"/>
    <path id="Path_209" data-name="Path 209" d="M546.67,161.6c-32.893,14.993-77.9,23.536-124.646,23.536H17.67v3.217H422.024c46.538,0,91.4-8.456,124.646-23.4Z" fill="#93121b"/>
    <path id="Path_210" data-name="Path 210" d="M17.67,191.29v2.936H422.109c46.517,0,91.362-7.2,124.561-19.927v-2.973c-32.909,12.72-77.871,19.964-124.561,19.964Z" fill="#93121b"/>
    <path id="Path_211" data-name="Path 211" d="M17.67,197.451V200.1H422.188c46.5,0,91.319-5.944,124.482-16.444V181.03c-32.928,10.464-77.845,16.421-124.482,16.421Z" fill="#93121b"/>
    <path id="Path_212" data-name="Path 212" d="M17.67,203.61v2.374h404.6c46.476,0,91.277-4.686,124.4-12.955v-2.317c-32.943,8.217-77.815,12.9-124.4,12.9Z" fill="#93121b"/>
    <path id="Path_213" data-name="Path 213" d="M546.67,200.353c-32.961,6-77.788,9.418-124.313,9.418H17.67v2.091H422.356c46.453,0,91.236-3.424,124.314-9.462Z" fill="#93121b"/>
    <path id="Path_214" data-name="Path 214" d="M546.67,210.291c-33.064,3.869-78.238,6.073-125.147,6.073H17.67v1.809H421.525c46.866,0,92.022-2.2,125.145-6.064Z" fill="#93121b"/>
  </g>
</svg>
